<svg width="27" height="27" viewBox="0 0 27 27" fill="none" xmlns="http://www.w3.org/2000/svg">
<path d="M18.8343 1.5C18.1271 1.5 17.449 1.78095 16.9489 2.28105C16.4489 2.78115 16.168 3.45942 16.168 4.16667V12.1667C16.168 12.8739 16.4489 13.5522 16.9489 14.0523C17.449 14.5524 18.1271 14.8333 18.8343 14.8333C19.1879 14.8333 19.527 14.9738 19.777 15.2239C20.027 15.4739 20.1675 15.813 20.1675 16.1667V17.5C20.1675 18.2072 19.8866 18.8855 19.3865 19.3856C18.8865 19.8857 18.2083 20.1667 17.5011 20.1667C17.1476 20.1667 16.8085 20.3071 16.5584 20.5572C16.3084 20.8072 16.168 21.1464 16.168 21.5V24.1667C16.168 24.5203 16.3084 24.8594 16.5584 25.1095C16.8085 25.3595 17.1476 25.5 17.5011 25.5C19.6226 25.5 21.6572 24.6571 23.1573 23.1569C24.6574 21.6566 25.5001 19.6217 25.5001 17.5V4.16667C25.5001 3.45942 25.2192 2.78115 24.7192 2.28105C24.2192 1.78095 23.541 1.5 22.8338 1.5H18.8343Z" stroke="white" stroke-width="1.04167" stroke-linecap="round" stroke-linejoin="round"/>
<path d="M4.16634 1.5C3.45918 1.5 2.78099 1.78095 2.28095 2.28105C1.78092 2.78115 1.5 3.45942 1.5 4.16667V12.1667C1.5 12.8739 1.78092 13.5522 2.28095 14.0523C2.78099 14.5524 3.45918 14.8333 4.16634 14.8333C4.51991 14.8333 4.85901 14.9738 5.10903 15.2239C5.35905 15.4739 5.4995 15.813 5.4995 16.1667V17.5C5.4995 18.2072 5.21859 18.8855 4.71855 19.3856C4.21852 19.8857 3.54032 20.1667 2.83317 20.1667C2.47959 20.1667 2.14049 20.3071 1.89048 20.5572C1.64046 20.8072 1.5 21.1464 1.5 21.5V24.1667C1.5 24.5203 1.64046 24.8594 1.89048 25.1095C2.14049 25.3595 2.47959 25.5 2.83317 25.5C4.95464 25.5 6.98922 24.6571 8.48932 23.1569C9.98942 21.6566 10.8322 19.6217 10.8322 17.5V4.16667C10.8322 3.45942 10.5513 2.78115 10.0512 2.28105C9.55119 1.78095 8.873 1.5 8.16584 1.5H4.16634Z" stroke="white" stroke-width="1.04167" stroke-linecap="round" stroke-linejoin="round"/>
</svg>
